<svg width="148" height="26" viewBox="0 0 148 26" fill="none" xmlns="http://www.w3.org/2000/svg">
<path d="M26.1338 16.5505C26.3008 18.0978 27.7205 20.7503 31.8403 20.7503C35.4312 20.7503 37.157 18.4846 37.157 16.2742C37.157 14.2848 35.7931 12.6546 33.0929 12.102L31.1444 11.6876C30.3928 11.5494 29.8917 11.135 29.8917 10.4718C29.8917 9.69819 30.6711 9.11796 31.6454 9.11796C33.2043 9.11796 33.7888 10.1403 33.9002 10.9416L36.99 10.2508C36.823 8.7864 35.5147 6.32731 31.6176 6.32731C28.6669 6.32731 26.4957 8.34432 26.4957 10.7758C26.4957 12.6823 27.6926 14.2572 30.3371 14.8374L32.1465 15.2519C33.2043 15.4729 33.6218 15.9702 33.6218 16.5781C33.6218 17.2965 33.0372 17.932 31.8124 17.932C30.1979 17.932 29.3907 16.9373 29.3071 15.8597L26.1338 16.5505Z" fill="white"/>
<path d="M43.8361 20.3358V6.74177H40.1338V20.3358H43.8361ZM39.6884 2.2933C39.6884 3.50903 40.7184 4.53135 41.971 4.53135C43.2515 4.53135 44.2536 3.50903 44.2536 2.2933C44.2536 1.02232 43.2515 0 41.971 0C40.7184 0 39.6884 1.02232 39.6884 2.2933Z" fill="white"/>
<path d="M46.8254 21.0818C47.2152 23.6791 49.7204 26 53.4784 26C58.6281 26 60.6602 22.6015 60.6602 18.8714V6.74177H57.0971V8.34432C56.6239 7.43252 55.3712 6.49309 53.2 6.49309C49.4421 6.49309 46.8254 9.53241 46.8254 13.1243C46.8254 16.9373 49.5534 19.7279 53.2 19.7279C55.1764 19.7279 56.4569 18.8714 57.0136 17.9872V18.9819C57.0136 21.6068 55.7053 22.7673 53.367 22.7673C51.6133 22.7673 50.4163 21.6897 50.1658 20.1977L46.8254 21.0818ZM53.8402 16.5781C51.9195 16.5781 50.5555 15.2519 50.5555 13.1243C50.5555 11.0244 52.003 9.69819 53.8402 9.69819C55.6218 9.69819 57.0693 11.0244 57.0693 13.1243C57.0693 15.2242 55.7331 16.5781 53.8402 16.5781Z" fill="white"/>
<path d="M73.2366 20.3358H76.7719C76.7162 19.8661 76.6327 18.9267 76.6327 17.8767V6.74177H72.9304V14.644C72.9304 16.2189 71.984 17.3241 70.3416 17.3241C68.6158 17.3241 67.8363 16.1084 67.8363 14.5887V6.74177H64.1341V15.3348C64.1341 18.2912 66.027 20.695 69.3395 20.695C70.787 20.695 72.3737 20.1424 73.1253 18.8714C73.1253 19.424 73.181 20.0595 73.2366 20.3358Z" fill="white"/>
<path d="M83.2295 11.9915C83.313 10.7481 84.3708 9.31137 86.2915 9.31137C88.4071 9.31137 89.2978 10.6376 89.3535 11.9915H83.2295ZM89.7154 15.5282C89.27 16.7439 88.3236 17.6004 86.5977 17.6004C84.7605 17.6004 83.2295 16.3018 83.146 14.5058H92.9444C92.9444 14.4506 93.0001 13.898 93.0001 13.373C93.0001 9.00744 90.467 6.32731 86.2358 6.32731C82.7284 6.32731 79.4994 9.14559 79.4994 13.4835C79.4994 18.0701 82.8119 20.7503 86.5699 20.7503C89.9381 20.7503 92.1093 18.7885 92.8053 16.44L89.7154 15.5282Z" fill="white"/>
<path d="M6.15187 2.68018H2.81149V4.58666C2.81149 5.80239 2.14341 6.74181 0.695912 6.74181H0V10.0022H2.47745V16.3295C2.47745 18.9544 4.14764 20.5293 6.81994 20.5293C7.90557 20.5293 8.57364 20.3359 8.90768 20.1977V17.1584C8.71282 17.2137 8.21177 17.2689 7.76638 17.2689C6.7086 17.2689 6.15187 16.8821 6.15187 15.694V10.0022H8.90768V6.74181H6.15187V2.68018Z" fill="url(#paint0_linear_90:20813)"/>
<path d="M6.15187 2.68018H2.81149V4.58666C2.81149 5.80239 2.14341 6.74181 0.695912 6.74181H0V10.0022H2.47745V16.3295C2.47745 18.9544 4.14764 20.5293 6.81994 20.5293C7.90557 20.5293 8.57364 20.3359 8.90768 20.1977V17.1584C8.71282 17.2137 8.21177 17.2689 7.76638 17.2689C6.7086 17.2689 6.15187 16.8821 6.15187 15.694V10.0022H8.90768V6.74181H6.15187V2.68018Z" fill="white"/>
<path d="M14.6168 11.9915C14.7003 10.7482 15.7581 9.31142 17.6788 9.31142C19.7944 9.31142 20.6851 10.6377 20.7408 11.9915H14.6168ZM21.1027 15.5282C20.6573 16.7439 19.7108 17.6005 17.985 17.6005C16.1478 17.6005 14.6168 16.3019 14.5333 14.5059H24.3317C24.3317 14.4506 24.3874 13.898 24.3874 13.3731C24.3874 9.00749 21.8543 6.32736 17.6231 6.32736C14.1157 6.32736 10.8867 9.14564 10.8867 13.4836C10.8867 18.0702 14.1992 20.7503 17.9571 20.7503C21.3254 20.7503 23.4966 18.7886 24.1925 16.44L21.1027 15.5282Z" fill="url(#paint1_linear_90:20813)"/>
<path d="M14.6168 11.9915C14.7003 10.7482 15.7581 9.31142 17.6788 9.31142C19.7944 9.31142 20.6851 10.6377 20.7408 11.9915H14.6168ZM21.1027 15.5282C20.6573 16.7439 19.7108 17.6005 17.985 17.6005C16.1478 17.6005 14.6168 16.3019 14.5333 14.5059H24.3317C24.3317 14.4506 24.3874 13.898 24.3874 13.3731C24.3874 9.00749 21.8543 6.32736 17.6231 6.32736C14.1157 6.32736 10.8867 9.14564 10.8867 13.4836C10.8867 18.0702 14.1992 20.7503 17.9571 20.7503C21.3254 20.7503 23.4966 18.7886 24.1925 16.44L21.1027 15.5282Z" fill="white"/>
<rect x="97" y="2" width="51" height="21" rx="10.5" fill="url(#paint2_linear_90:20813)"/>
<rect x="97" y="2" width="51" height="21" rx="10.5" fill="url(#paint3_linear_90:20813)" style="mix-blend-mode:overlay"/>
<path d="M103.167 17C104.403 17 105.334 16.1236 105.334 14.9775C105.334 13.8315 104.403 12.9551 103.167 12.9551C101.931 12.9551 101 13.8315 101 14.9775C101 16.1236 101.931 17 103.167 17Z" fill="black"/>
<path d="M110.737 17C113.37 17 115.412 15.3146 115.662 13.0056H112.313C112.098 13.6292 111.489 14.0674 110.737 14.0674C109.788 14.0674 109.089 13.3933 109.089 12.5C109.089 11.6067 109.788 10.9326 110.737 10.9326C111.489 10.9326 112.098 11.3708 112.313 11.9944H115.662C115.412 9.68539 113.37 8 110.737 8C107.907 8 105.776 9.9382 105.776 12.5C105.776 15.0618 107.907 17 110.737 17Z" fill="black"/>
<path d="M121.301 17C124.131 17 126.262 15.0618 126.262 12.5C126.262 9.9382 124.131 8 121.301 8C118.472 8 116.34 9.9382 116.34 12.5C116.34 15.0618 118.472 17 121.301 17ZM121.301 14.0674C120.352 14.0674 119.654 13.3933 119.654 12.5C119.654 11.6067 120.352 10.9326 121.301 10.9326C122.251 10.9326 122.949 11.6067 122.949 12.5C122.949 13.3933 122.251 14.0674 121.301 14.0674Z" fill="black"/>
<path d="M138.74 8C137.558 8 136.591 8.45506 135.857 9.33146C135.32 8.48876 134.334 8 133.117 8C132.185 8 131.379 8.32022 130.752 8.94382V8.20225H127.529V16.7978H130.752V12.1124C130.752 11.4045 131.272 10.9326 132.024 10.9326C132.705 10.9326 133.152 11.3876 133.152 12.0787V16.7978H136.376V12.1124C136.376 11.4045 136.896 10.9326 137.648 10.9326C138.328 10.9326 138.776 11.3876 138.776 12.0787V16.7978H142V11.1517C142 9.24719 140.693 8 138.74 8Z" fill="black"/>
<defs>
<linearGradient id="paint0_linear_90:20813" x1="-11" y1="-25.9999" x2="1.28987" y2="-30.9189" gradientUnits="userSpaceOnUse">
<stop offset="0.109499" stop-color="#00A3FF"/>
<stop offset="1" stop-color="#FF00B8"/>
</linearGradient>
<linearGradient id="paint1_linear_90:20813" x1="-11" y1="-25.9999" x2="1.28987" y2="-30.9189" gradientUnits="userSpaceOnUse">
<stop offset="0.109499" stop-color="#00A3FF"/>
<stop offset="1" stop-color="#FF00B8"/>
</linearGradient>
<linearGradient id="paint2_linear_90:20813" x1="73.9964" y1="-31.3302" x2="93.6299" y2="-45.4711" gradientUnits="userSpaceOnUse">
<stop offset="0.109499" stop-color="#00A3FF"/>
<stop offset="1" stop-color="#FF00B8"/>
</linearGradient>
<linearGradient id="paint3_linear_90:20813" x1="122.5" y1="2" x2="122.5" y2="23" gradientUnits="userSpaceOnUse">
<stop stop-color="white"/>
<stop offset="0.70061" stop-color="white" stop-opacity="0"/>
</linearGradient>
</defs>
</svg>
