<svg width="24" height="24" viewBox="0 0 24 24" fill="none" xmlns="http://www.w3.org/2000/svg">
<path fill-rule="evenodd" clip-rule="evenodd" d="M12.0002 3.04995C7.05725 3.04995 3.0502 7.057 3.0502 12C3.0502 16.9429 7.05725 20.95 12.0002 20.95C16.9431 20.95 20.9502 16.9429 20.9502 12C20.9502 7.057 16.9431 3.04995 12.0002 3.04995ZM0.950195 12C0.950195 5.89721 5.89745 0.949951 12.0002 0.949951C18.1029 0.949951 23.0502 5.89721 23.0502 12C23.0502 18.1027 18.1029 23.05 12.0002 23.05C5.89745 23.05 0.950195 18.1027 0.950195 12ZM12.0002 6.94995C12.5801 6.94995 13.0502 7.42005 13.0502 7.99995L13.0502 13.465L15.2577 11.2575C15.6678 10.8474 16.3326 10.8474 16.7427 11.2575C17.1527 11.6675 17.1527 12.3324 16.7427 12.7424L12.7427 16.7424C12.5457 16.9393 12.2787 17.05 12.0002 17.05C11.7217 17.05 11.4546 16.9393 11.2577 16.7424L7.25773 12.7424C6.84768 12.3324 6.84768 11.6675 7.25773 11.2575C7.66778 10.8474 8.33261 10.8474 8.74266 11.2575L10.9502 13.465V7.99995C10.9502 7.42005 11.4203 6.94995 12.0002 6.94995Z" fill="white"/>
</svg>
