<svg width="38" height="37" viewBox="0 0 38 37" fill="none" xmlns="http://www.w3.org/2000/svg">
<path fill-rule="evenodd" clip-rule="evenodd" d="M19 1C9.0652 1 1 8.84117 1 18.5C1 28.1588 9.0652 36 19 36C28.9348 36 37 28.1588 37 18.5C37 8.84117 28.9348 1 19 1ZM19 3.33333C27.61 3.33333 34.6 10.1292 34.6 18.5C34.6 26.8708 27.61 33.6667 19 33.6667C10.39 33.6667 3.4 26.8708 3.4 18.5C3.4 10.1292 10.39 3.33333 19 3.33333ZM19 16.8503L14.7568 12.725C14.2888 12.27 13.5292 12.27 13.06 12.725C12.592 13.1812 12.592 13.9197 13.06 14.3747L17.3032 18.5L13.06 22.6253C12.592 23.0803 12.592 23.8188 13.06 24.275C13.5292 24.73 14.2888 24.73 14.7568 24.275L19 20.1497L23.2432 24.275C23.7112 24.73 24.4708 24.73 24.94 24.275C25.408 23.8188 25.408 23.0803 24.94 22.6253L20.6968 18.5L24.94 14.3747C25.408 13.9197 25.408 13.1812 24.94 12.725C24.4708 12.27 23.7112 12.27 23.2432 12.725L19 16.8503Z" fill="white" fill-opacity="0.5" stroke="#482D49" stroke-width="0.9"/>
</svg>
