<svg width="47" height="43" viewBox="0 0 47 43" fill="none" xmlns="http://www.w3.org/2000/svg">
<path d="M12.929 6.03695C12.929 2.70074 15.6313 0 18.9696 0C22.3078 0 25.0101 2.70074 25.0101 6.03695C25.0101 9.37315 22.3078 12.0739 18.9696 12.0739C15.6313 12.0209 12.929 9.3202 12.929 6.03695ZM21.8309 16.1515C21.8839 14.8276 22.3608 13.6096 23.0496 12.6034C22.5197 12.4975 21.9899 12.4446 21.46 12.4446H16.3732C15.8433 12.4446 15.3134 12.4975 14.7835 12.6034C15.5784 13.6626 16.0023 14.9865 16.0023 16.4163C16.956 15.8867 18.0158 15.6219 19.1815 15.6219C20.1883 15.569 21.0361 15.7808 21.8309 16.1515ZM22.8906 16.681C24.6392 17.7931 25.8579 19.6466 26.0699 21.7648C26.7587 22.0825 27.5536 22.2943 28.4014 22.2943C31.4746 22.2943 33.965 19.8054 33.965 16.734C33.965 13.6626 31.4746 11.1736 28.4014 11.1736C25.3811 11.2266 22.8906 13.6626 22.8906 16.681ZM19.2345 28.0135C22.3078 28.0135 24.7982 25.5246 24.7982 22.4532C24.7982 19.3818 22.3078 16.8929 19.2345 16.8929C16.1612 16.8929 13.6708 19.3818 13.6708 22.4532C13.6708 25.5246 16.1612 28.0135 19.2345 28.0135ZM21.566 28.3842H16.8501C12.929 28.3842 9.74972 31.5616 9.74972 35.4803V41.2525V41.3584L10.1206 41.4643C13.8298 42.6293 17.115 43 19.7644 43C24.9572 43 27.9774 41.5172 28.1894 41.4113L28.5603 41.1995H28.6133V35.4803C28.6663 31.5616 25.487 28.3842 21.566 28.3842ZM30.7328 22.665H26.0699C26.0169 24.5185 25.2221 26.2131 23.9504 27.431C27.4476 28.4902 29.991 31.6675 29.991 35.4803V37.2278C34.6009 37.069 37.2503 35.7451 37.4092 35.6921L37.7802 35.4803H37.8331V29.7611C37.8331 25.8424 34.6539 22.665 30.7328 22.665ZM32.0045 11.0677C33.7531 12.1798 34.9718 14.0333 35.1838 16.1515C35.8726 16.4692 36.6674 16.681 37.5152 16.681C40.5885 16.681 43.0789 14.1921 43.0789 11.1207C43.0789 8.04926 40.5885 5.56035 37.5152 5.56035C34.4949 5.6133 32.0575 8.04926 32.0045 11.0677ZM39.8997 17.1047H35.2367C35.1838 18.9581 34.3889 20.6527 33.1172 21.8707C36.6144 22.9298 39.1578 26.1071 39.1578 29.92V31.6675C43.7678 31.5086 46.4171 30.1847 46.5761 30.1318L46.947 29.92H47V24.2007C47 20.282 43.8207 17.1047 39.8997 17.1047ZM9.48478 22.2943C10.5445 22.2943 11.5513 21.9766 12.4521 21.447C12.717 19.6995 13.6708 18.1108 15.0485 17.0517C15.0485 16.9458 15.0485 16.8399 15.0485 16.734C15.0485 13.6626 12.5581 11.1736 9.48478 11.1736C6.4115 11.1736 3.92108 13.6626 3.92108 16.734C3.92108 19.8054 6.46449 22.2943 9.48478 22.2943ZM14.4656 27.431C13.1939 26.2131 12.3991 24.5714 12.3461 22.718C12.1871 22.718 12.0282 22.718 11.8162 22.718H7.10034C3.17926 22.718 0 25.8953 0 29.814V35.5862V35.6921L0.370913 35.798C3.39121 36.7512 6.04059 37.1749 8.37204 37.2808V35.5333C8.47801 31.6675 11.0214 28.4372 14.4656 27.431Z" fill="url(#paint0_linear_90_22875)"/>
<path d="M12.929 6.03695C12.929 2.70074 15.6313 0 18.9696 0C22.3078 0 25.0101 2.70074 25.0101 6.03695C25.0101 9.37315 22.3078 12.0739 18.9696 12.0739C15.6313 12.0209 12.929 9.3202 12.929 6.03695ZM21.8309 16.1515C21.8839 14.8276 22.3608 13.6096 23.0496 12.6034C22.5197 12.4975 21.9899 12.4446 21.46 12.4446H16.3732C15.8433 12.4446 15.3134 12.4975 14.7835 12.6034C15.5784 13.6626 16.0023 14.9865 16.0023 16.4163C16.956 15.8867 18.0158 15.6219 19.1815 15.6219C20.1883 15.569 21.0361 15.7808 21.8309 16.1515ZM22.8906 16.681C24.6392 17.7931 25.8579 19.6466 26.0699 21.7648C26.7587 22.0825 27.5536 22.2943 28.4014 22.2943C31.4746 22.2943 33.965 19.8054 33.965 16.734C33.965 13.6626 31.4746 11.1736 28.4014 11.1736C25.3811 11.2266 22.8906 13.6626 22.8906 16.681ZM19.2345 28.0135C22.3078 28.0135 24.7982 25.5246 24.7982 22.4532C24.7982 19.3818 22.3078 16.8929 19.2345 16.8929C16.1612 16.8929 13.6708 19.3818 13.6708 22.4532C13.6708 25.5246 16.1612 28.0135 19.2345 28.0135ZM21.566 28.3842H16.8501C12.929 28.3842 9.74972 31.5616 9.74972 35.4803V41.2525V41.3584L10.1206 41.4643C13.8298 42.6293 17.115 43 19.7644 43C24.9572 43 27.9774 41.5172 28.1894 41.4113L28.5603 41.1995H28.6133V35.4803C28.6663 31.5616 25.487 28.3842 21.566 28.3842ZM30.7328 22.665H26.0699C26.0169 24.5185 25.2221 26.2131 23.9504 27.431C27.4476 28.4902 29.991 31.6675 29.991 35.4803V37.2278C34.6009 37.069 37.2503 35.7451 37.4092 35.6921L37.7802 35.4803H37.8331V29.7611C37.8331 25.8424 34.6539 22.665 30.7328 22.665ZM32.0045 11.0677C33.7531 12.1798 34.9718 14.0333 35.1838 16.1515C35.8726 16.4692 36.6674 16.681 37.5152 16.681C40.5885 16.681 43.0789 14.1921 43.0789 11.1207C43.0789 8.04926 40.5885 5.56035 37.5152 5.56035C34.4949 5.6133 32.0575 8.04926 32.0045 11.0677ZM39.8997 17.1047H35.2367C35.1838 18.9581 34.3889 20.6527 33.1172 21.8707C36.6144 22.9298 39.1578 26.1071 39.1578 29.92V31.6675C43.7678 31.5086 46.4171 30.1847 46.5761 30.1318L46.947 29.92H47V24.2007C47 20.282 43.8207 17.1047 39.8997 17.1047ZM9.48478 22.2943C10.5445 22.2943 11.5513 21.9766 12.4521 21.447C12.717 19.6995 13.6708 18.1108 15.0485 17.0517C15.0485 16.9458 15.0485 16.8399 15.0485 16.734C15.0485 13.6626 12.5581 11.1736 9.48478 11.1736C6.4115 11.1736 3.92108 13.6626 3.92108 16.734C3.92108 19.8054 6.46449 22.2943 9.48478 22.2943ZM14.4656 27.431C13.1939 26.2131 12.3991 24.5714 12.3461 22.718C12.1871 22.718 12.0282 22.718 11.8162 22.718H7.10034C3.17926 22.718 0 25.8953 0 29.814V35.5862V35.6921L0.370913 35.798C3.39121 36.7512 6.04059 37.1749 8.37204 37.2808V35.5333C8.47801 31.6675 11.0214 28.4372 14.4656 27.431Z" fill="url(#paint1_linear_90_22875)" style="mix-blend-mode:overlay"/>
<defs>
<linearGradient id="paint0_linear_90_22875" x1="13" y1="5.99972" x2="52.9981" y2="6.01633" gradientUnits="userSpaceOnUse">
<stop stop-color="#00A3FF"/>
<stop offset="0.530442" stop-color="#FF00B8"/>
</linearGradient>
<linearGradient id="paint1_linear_90_22875" x1="23.5" y1="0" x2="23.5" y2="43" gradientUnits="userSpaceOnUse">
<stop stop-color="white"/>
<stop offset="0.70061" stop-color="white" stop-opacity="0"/>
</linearGradient>
</defs>
</svg>
