<svg width="17" height="43" viewBox="0 0 17 43" fill="none" xmlns="http://www.w3.org/2000/svg">
<path fill-rule="evenodd" clip-rule="evenodd" d="M12.4488 3.98533C12.4488 6.18637 10.6658 7.97066 8.46646 7.97066C6.2671 7.97066 4.48416 6.18637 4.48416 3.98533C4.48416 1.78429 6.2671 0 8.46646 0C10.6658 0 12.4488 1.78429 12.4488 3.98533ZM4.9605 8.72105H11.9221C14.663 8.72105 16.8776 10.9373 16.8826 13.6804V20.7963C16.8826 22.5952 15.9292 24.1704 14.4992 25.04C14.236 25.199 13.8983 25.0152 13.8983 24.7021V14.1127C13.8983 13.9338 13.7643 13.7996 13.5855 13.7996C13.4068 13.7996 13.2727 13.9388 13.2727 14.1127V40.7577C13.2727 42.0199 12.2349 43.0386 10.9588 42.9989C9.72734 42.9591 8.78391 41.8907 8.78391 40.6583V26.665C8.78391 26.496 8.64984 26.3519 8.47108 26.3519C8.29232 26.3519 8.15826 26.501 8.15826 26.665V40.7577C8.15826 42.0199 7.11054 43.0287 5.84932 42.9989C4.61788 42.9591 3.67444 41.8808 3.67444 40.6583V14.1127C3.67444 13.9338 3.53541 13.7996 3.36162 13.7996C3.18783 13.7996 3.04879 13.9388 3.04879 14.1127V24.7568C3.04879 25.0549 2.72107 25.2388 2.4579 25.0848C0.988127 24.23 0 22.625 0 20.8013V13.6853C0 10.9423 2.22453 8.72105 4.9605 8.72105Z" fill="white"/>
</svg>
