<svg width="29" height="20" viewBox="0 0 29 20" fill="none" xmlns="http://www.w3.org/2000/svg">
<path fill-rule="evenodd" clip-rule="evenodd" d="M0 1.48936C0 0.66681 0.66681 0 1.48936 0H27.0213C27.8438 0 28.5106 0.66681 28.5106 1.48936C28.5106 2.31191 27.8438 2.97872 27.0213 2.97872H1.48936C0.66681 2.97872 0 2.31191 0 1.48936ZM0 10C0 9.17745 0.66681 8.51064 1.48936 8.51064H27.0213C27.8438 8.51064 28.5106 9.17745 28.5106 10C28.5106 10.8226 27.8438 11.4894 27.0213 11.4894H1.48936C0.66681 11.4894 0 10.8226 0 10ZM0 18.5106C0 17.6881 0.66681 17.0213 1.48936 17.0213H27.0213C27.8438 17.0213 28.5106 17.6881 28.5106 18.5106C28.5106 19.3332 27.8438 20 27.0213 20H1.48936C0.66681 20 0 19.3332 0 18.5106Z" fill="white"/>
</svg>
