<svg width="60" height="37" viewBox="0 0 60 37" fill="none" xmlns="http://www.w3.org/2000/svg">
<path d="M0.540039 0.524712V6.18439H1.81377V4.37794H2.63087C3.19564 4.37794 3.66828 4.19369 4.0488 3.82919C4.42931 3.4647 4.61757 3.00407 4.61757 2.45132C4.61757 1.89857 4.42931 1.43795 4.0488 1.07346C3.66828 0.708961 3.19564 0.524712 2.63087 0.524712H0.540039ZM1.81377 3.18031V1.72234H2.59883C2.80311 1.72234 2.97134 1.79043 3.10752 1.93062C3.24371 2.07081 3.3118 2.24304 3.3118 2.45132C3.3118 2.65961 3.24371 2.83184 3.10752 2.97203C2.97134 3.11222 2.80311 3.18031 2.59883 3.18031H1.81377Z" fill="white"/>
<path d="M8.13434 2.45934C7.79388 2.08683 7.3693 1.90258 6.86862 1.90258C6.29585 1.90258 5.81519 2.11086 5.43067 2.52743C5.04214 2.948 4.84988 3.4687 4.84988 4.08955C4.84988 4.71439 5.04214 5.2351 5.43067 5.65567C5.81519 6.07624 6.29585 6.28452 6.86862 6.28452C7.37331 6.28052 7.79388 6.09627 8.13434 5.72376V6.18439H9.33196V2.00272H8.13434V2.45934ZM7.10895 5.12695C6.81655 5.12695 6.57623 5.02682 6.38396 4.83055C6.1877 4.63428 6.09157 4.38595 6.09157 4.08955C6.09157 3.79715 6.1877 3.54881 6.38396 3.35255C6.57623 3.15628 6.81655 3.06015 7.10895 3.06015C7.40134 3.06015 7.64568 3.15628 7.84194 3.35255C8.03821 3.54881 8.13434 3.79715 8.13434 4.08955C8.13434 4.38595 8.03821 4.63428 7.84595 4.83055C7.64968 5.02682 7.40535 5.12695 7.10895 5.12695Z" fill="white"/>
<path d="M12.1598 4.65832L11.1905 2.00272H9.82063L11.4949 6.12831L10.838 7.7425H12.1197L14.4549 2.00272H13.1171L12.1598 4.65832Z" fill="white"/>
<path d="M21.3042 4.63428L20.4951 2.00272H19.2734L18.4523 4.65031L17.6793 2.00272H16.3174L17.8115 6.18439H19.0411L19.8703 3.45268L20.6914 6.18439H21.921L23.4151 2.00272H22.0772L21.3042 4.63428Z" fill="white"/>
<path d="M24.5206 1.46599C24.7328 1.46599 24.9131 1.3979 25.0573 1.25771C25.1975 1.11752 25.2696 0.941277 25.2696 0.728989C25.2696 0.520706 25.1975 0.348473 25.0573 0.208282C24.9131 0.0680923 24.7328 0 24.5206 0C24.3123 0 24.136 0.0680923 23.9958 0.208282C23.8557 0.348473 23.7836 0.520706 23.7836 0.728989C23.7836 0.941277 23.8557 1.11752 23.9958 1.25771C24.136 1.3979 24.3123 1.46599 24.5206 1.46599ZM25.1214 6.18439V2.00272H23.9238V6.18439H25.1214Z" fill="white"/>
<path d="M27.7369 2.00272V0.769043L26.5393 1.0334V2.00272H25.7743V3.09219H26.5393V6.18439H27.7369V3.09219H28.546V2.00272H27.7369Z" fill="white"/>
<path d="M31.6302 1.90258C31.1095 1.90258 30.6849 2.09885 30.3605 2.49138V0.276375H29.1629V6.18439H30.3605V3.91331C30.3605 3.65295 30.4406 3.44868 30.6048 3.29247C30.765 3.13625 30.9733 3.06015 31.2297 3.06015C31.47 3.06015 31.6663 3.13625 31.8145 3.28846C31.9627 3.44467 32.0348 3.64494 32.0348 3.89729V6.18439H33.2324V3.49274C33.2324 3.01208 33.0842 2.62756 32.7918 2.33517C32.4994 2.04678 32.1109 1.90258 31.6302 1.90258Z" fill="white"/>
<path d="M4.21667 21.1239C4.21667 20.4739 4.75 20.2239 5.63333 20.2239C6.9 20.2239 8.5 20.6072 9.76667 21.2906V17.3739C8.38333 16.8239 7.01667 16.6072 5.63333 16.6072C2.25 16.6072 0 18.3739 0 21.3239C0 25.9239 6.33333 25.1906 6.33333 27.1739C6.33333 27.9406 5.66667 28.1906 4.73333 28.1906C3.35 28.1906 1.58333 27.6239 0.183333 26.8572V30.8239C1.73333 31.4906 3.3 31.7739 4.73333 31.7739C8.2 31.7739 10.5833 30.0572 10.5833 27.0739C10.5667 22.1072 4.21667 22.9906 4.21667 21.1239ZM15.4833 13.2739L11.4167 14.1406L11.4 27.4906C11.4 29.9572 13.25 31.7739 15.7167 31.7739C17.0833 31.7739 18.0833 31.5239 18.6333 31.2239V27.8406C18.1 28.0572 15.4667 28.8239 15.4667 26.3572V20.4406H18.6333V16.8906H15.4667L15.4833 13.2739ZM23.8167 18.1239L23.55 16.8906H19.95V31.4739H24.1167V21.5906C25.1 20.3072 26.7667 20.5406 27.2833 20.7239V16.8906C26.75 16.6906 24.8 16.3239 23.8167 18.1239ZM28.3 16.8906H32.4833V31.4739H28.3V16.8906ZM28.3 15.6239L32.4833 14.7239V11.3406L28.3 12.2239V15.6239ZM41.1833 16.6072C39.55 16.6072 38.5 17.3739 37.9167 17.9072L37.7 16.8739H34.0333V36.3072L38.2 35.4239L38.2167 30.7072C38.8167 31.1406 39.7 31.7572 41.1667 31.7572C44.15 31.7572 46.8667 29.3572 46.8667 24.0739C46.85 19.2406 44.1 16.6072 41.1833 16.6072ZM40.1833 28.0906C39.2 28.0906 38.6167 27.7406 38.2167 27.3072L38.2 21.1239C38.6333 20.6406 39.2333 20.3072 40.1833 20.3072C41.7 20.3072 42.75 22.0072 42.75 24.1906C42.75 26.4239 41.7167 28.0906 40.1833 28.0906ZM60 24.2406C60 19.9739 57.9333 16.6072 53.9833 16.6072C50.0167 16.6072 47.6167 19.9739 47.6167 24.2072C47.6167 29.2239 50.45 31.7572 54.5167 31.7572C56.5 31.7572 58 31.3072 59.1333 30.6739V27.3406C58 27.9072 56.7 28.2572 55.05 28.2572C53.4333 28.2572 52 27.6906 51.8167 25.7239H59.9667C59.9667 25.5072 60 24.6406 60 24.2406ZM51.7667 22.6572C51.7667 20.7739 52.9167 19.9906 53.9667 19.9906C54.9833 19.9906 56.0667 20.7739 56.0667 22.6572H51.7667Z" fill="white"/>
</svg>
