<svg width="19" height="43" viewBox="0 0 19 43" fill="none" xmlns="http://www.w3.org/2000/svg">
<path fill-rule="evenodd" clip-rule="evenodd" d="M13.0694 3.98532C13.0694 6.18635 11.2865 7.97064 9.0871 7.97064C6.88774 7.97064 5.1048 6.18635 5.1048 3.98532C5.1048 1.78429 6.88774 0 9.0871 0C11.2865 0 13.0694 1.78429 13.0694 3.98532ZM17.4585 20.697C17.4585 22.1679 16.7981 23.4897 15.7703 24.3941L18.1686 30.546H13.8735V40.7776C13.8735 42.0299 12.8456 43.0386 11.5844 42.9989C10.3579 42.9591 9.42443 41.9007 9.42443 40.6882V30.546H8.80375V40.7776C8.80375 42.0299 7.7759 43.0386 6.51467 42.9989C5.29317 42.9591 4.3547 41.9007 4.3547 40.6882V30.546H0L2.40825 24.3941C1.37543 23.4897 0.71999 22.1679 0.71999 20.697V13.6357C0.71999 10.9175 2.91968 8.71616 5.63579 8.71616H12.5427C15.2588 8.71616 17.4585 10.9175 17.4585 13.6357V20.697ZM3.74395 20.9554L4.3547 19.3752H4.35967V14.073C4.35967 13.8991 4.2256 13.7599 4.05181 13.7599C3.87802 13.7599 3.74395 13.8991 3.74395 14.073V20.9554ZM13.8685 19.5292L14.4793 21.1094H14.4842V14.073C14.4842 13.8991 14.3551 13.7599 14.1714 13.7599C14.0026 13.7599 13.8685 13.8991 13.8685 14.073V19.5292Z" fill="white"/>
</svg>
