<?xml version="1.0" standalone="no"?>
<!DOCTYPE svg PUBLIC "-//W3C//DTD SVG 20010904//EN"
 "http://www.w3.org/TR/2001/REC-SVG-20010904/DTD/svg10.dtd">
<svg version="1.0" xmlns="http://www.w3.org/2000/svg"
 width="260.000000pt" height="260.000000pt" viewBox="0 0 260.000000 260.000000"
 preserveAspectRatio="xMidYMid meet">
<metadata>
Created by potrace 1.14, written by Peter Selinger 2001-2017
</metadata>
<g transform="translate(0.000000,260.000000) scale(0.100000,-0.100000)"
fill="#000000" stroke="none">
<path d="M413 1826 c-238 -58 -411 -275 -411 -516 0 -198 108 -382 278 -473
126 -68 96 -66 1005 -67 549 0 840 3 880 11 103 18 200 72 283 155 39 41 72
80 72 88 0 8 4 16 8 18 13 5 49 99 62 161 15 75 6 199 -20 273 -60 173 -200
302 -376 348 -51 13 -170 15 -894 15 -640 0 -847 -4 -887 -13z"/>
</g>
</svg>
